# xmcd CD database file
#
# Track frame offsets:
#	150
#	15495
#	29065
#	44725
#	58647
#	74032
#	86732
#	101427
#
# Disc length: 1573 seconds
#
# Revision: 0
# Processed by: cddbd v1.4b42PL1 Copyright (c) Steve Scherf et al.
# Submitted via: CDex 1.40Beta6
#
DISCID=70062308
DTITLE=Collette Wise - Faces Of Love
DYEAR=1900
DGENRE=Country
TTITLE0=Blinded By The Love
TTITLE1=Little Things
TTITLE2=There Ain't Gonna Be A You And Me
TTITLE3=Forever's Never Long Enough
TTITLE4=What Am I Gonna Do With A Love Like That
TTITLE5=Leavin' On Your Mind
TTITLE6=Faith In Love
TTITLE7=Meet Me Where They Play The Blues
EXTD=
EXTT0=
EXTT1=
EXTT2=
EXTT3=
EXTT4=
EXTT5=
EXTT6=
EXTT7=
PLAYORDER=
